<svg width="26" height="26" viewBox="0 0 26 26" fill="none" xmlns="http://www.w3.org/2000/svg">
<path d="M10.8333 22.7501H15.1667C15.1667 23.9417 14.1917 24.9167 13 24.9167C11.8083 24.9167 10.8333 23.9417 10.8333 22.7501ZM22.75 20.5834V21.6667H3.25V20.5834L5.41667 18.4167V11.9167C5.41667 8.55841 7.58333 5.63341 10.8333 4.65842V4.33341C10.8333 3.14175 11.8083 2.16675 13 2.16675C14.1917 2.16675 15.1667 3.14175 15.1667 4.33341V4.65842C18.4167 5.63341 20.5833 8.55841 20.5833 11.9167V18.4167L22.75 20.5834ZM18.4167 11.9167C18.4167 8.88342 16.0333 6.50008 13 6.50008C9.96667 6.50008 7.58333 8.88342 7.58333 11.9167V19.5001H18.4167V11.9167Z" fill="black"/>
<circle cx="18.4166" cy="7.58325" r="3.25" fill="#FA4242"/>
</svg>
