<svg width="48" height="48" viewBox="0 0 48 48" fill="none" xmlns="http://www.w3.org/2000/svg">
<circle cx="23.871" cy="23.871" r="21.9257" fill="#F5F5F5"/>
<path fill-rule="evenodd" clip-rule="evenodd" d="M32.7273 17.4546C32.7273 19.7692 31.8078 21.989 30.1711 23.6257C28.5344 25.2624 26.3146 26.1818 24 26.1818C21.6854 26.1818 19.4655 25.2624 17.8289 23.6257C16.1922 21.989 15.2727 19.7692 15.2727 17.4546C15.2727 15.14 16.1922 12.9201 17.8289 11.2835C19.4655 9.64677 21.6854 8.72729 24 8.72729C26.3146 8.72729 28.5344 9.64677 30.1711 11.2835C31.8078 12.9201 32.7273 15.14 32.7273 17.4546ZM28.3636 17.4546C28.3636 18.6119 27.9039 19.7218 27.0855 20.5401C26.2672 21.3585 25.1573 21.8182 24 21.8182C22.8427 21.8182 21.7328 21.3585 20.9144 20.5401C20.0961 19.7218 19.6363 18.6119 19.6363 17.4546C19.6363 16.2973 20.0961 15.1874 20.9144 14.369C21.7328 13.5507 22.8427 13.0909 24 13.0909C25.1573 13.0909 26.2672 13.5507 27.0855 14.369C27.9039 15.1874 28.3636 16.2973 28.3636 17.4546Z" fill="black"/>
<path fill-rule="evenodd" clip-rule="evenodd" d="M24 0C10.7455 0 0 10.7455 0 24C0 37.2545 10.7455 48 24 48C37.2545 48 48 37.2545 48 24C48 10.7455 37.2545 0 24 0ZM4.36364 24C4.36364 28.56 5.91927 32.7578 8.52655 36.0916C10.3581 33.6875 12.7203 31.7392 15.429 30.3987C18.1377 29.0581 21.1196 28.3617 24.1418 28.3636C27.1252 28.3602 30.07 29.038 32.7516 30.3455C35.4331 31.6531 37.7807 33.5557 39.6153 35.9084C41.5057 33.429 42.7786 30.535 43.3285 27.466C43.8784 24.397 43.6897 21.2412 42.7778 18.2596C41.8659 15.278 40.2572 12.5565 38.0847 10.3201C35.9122 8.0837 33.2384 6.39678 30.2845 5.39893C27.3306 4.40107 24.1815 4.12096 21.0979 4.58176C18.0142 5.04256 15.0846 6.23104 12.5515 8.04884C10.0184 9.86665 7.9545 12.2615 6.53068 15.0353C5.10687 17.8091 4.36403 20.8821 4.36364 24ZM24 43.6364C19.4922 43.6437 15.1203 42.0929 11.6247 39.2465C13.0316 37.2319 14.9044 35.587 17.0838 34.4519C19.2632 33.3168 21.6846 32.7252 24.1418 32.7273C26.5684 32.7252 28.9604 33.3021 31.1192 34.4101C33.278 35.5182 35.1413 37.1254 36.5542 39.0982C33.0316 42.0371 28.5876 43.6435 24 43.6364Z" fill="black"/>
</svg>
