<svg width="17" height="18" viewBox="0 0 17 18" fill="none" xmlns="http://www.w3.org/2000/svg">
<path d="M15.2617 6.12373C15.0625 5.92454 14.7923 5.81264 14.5105 5.81264C14.2288 5.81264 13.9586 5.92454 13.7594 6.12373L8.49998 11.3831L3.2406 6.12373C3.04021 5.93019 2.77182 5.82309 2.49324 5.82551C2.21466 5.82794 1.94817 5.93968 1.75117 6.13667C1.55417 6.33367 1.44243 6.60016 1.44001 6.87874C1.43759 7.15733 1.54469 7.42572 1.73823 7.62611L7.74879 13.6367C7.94804 13.8359 8.21824 13.9478 8.49998 13.9478C8.78172 13.9478 9.05192 13.8359 9.25117 13.6367L15.2617 7.62611C15.4609 7.42686 15.5728 7.15665 15.5728 6.87492C15.5728 6.59318 15.4609 6.32298 15.2617 6.12373Z" fill="#EDF5C4"/>
</svg>
