<svg width="17" height="18" viewBox="0 0 17 18" fill="none" xmlns="http://www.w3.org/2000/svg">
<path d="M15.2617 6.12379C15.0625 5.9246 14.7923 5.81271 14.5105 5.81271C14.2288 5.81271 13.9586 5.9246 13.7594 6.12379L8.49998 11.3832L3.2406 6.12379C3.04021 5.93025 2.77182 5.82316 2.49324 5.82558C2.21466 5.828 1.94817 5.93974 1.75117 6.13673C1.55417 6.33373 1.44243 6.60022 1.44001 6.8788C1.43759 7.15739 1.54469 7.42578 1.73823 7.62617L7.74879 13.6367C7.94804 13.8359 8.21824 13.9478 8.49998 13.9478C8.78172 13.9478 9.05192 13.8359 9.25117 13.6367L15.2617 7.62617C15.4609 7.42692 15.5728 7.15672 15.5728 6.87498C15.5728 6.59324 15.4609 6.32304 15.2617 6.12379Z" fill="#236152"/>
</svg>
