<svg width="32" height="32" viewBox="0 0 32 32" fill="none" xmlns="http://www.w3.org/2000/svg">
<path d="M7.7143 3.42871C6.57766 3.42871 5.48757 3.88024 4.68385 4.68397C3.88012 5.48769 3.42859 6.57778 3.42859 7.71443V24.2859C3.42859 25.4225 3.88012 26.5126 4.68385 27.3163C5.48757 28.12 6.57766 28.5716 7.7143 28.5716H24.2857C25.4224 28.5716 26.5125 28.12 27.3162 27.3163C28.1199 26.5126 28.5714 25.4225 28.5714 24.2859V7.71443C28.5714 6.57778 28.1199 5.48769 27.3162 4.68397C26.5125 3.88024 25.4224 3.42871 24.2857 3.42871H7.7143ZM6.85716 10.2859C6.85716 9.67964 7.09798 9.09826 7.52663 8.66961C7.95528 8.24095 8.53666 8.00014 9.14287 8.00014H22.8572C23.4634 8.00014 24.0447 8.24095 24.4734 8.66961C24.9021 9.09826 25.1429 9.67964 25.1429 10.2859V12.5716C25.1429 13.1778 24.9021 13.7592 24.4734 14.1878C24.0447 14.6165 23.4634 14.8573 22.8572 14.8573H9.14287C8.53666 14.8573 7.95528 14.6165 7.52663 14.1878C7.09798 13.7592 6.85716 13.1778 6.85716 12.5716V10.2859ZM9.14287 9.71443C8.99132 9.71443 8.84598 9.77463 8.73881 9.88179C8.63165 9.98896 8.57145 10.1343 8.57145 10.2859V12.5716C8.57145 12.7231 8.63165 12.8685 8.73881 12.9756C8.84598 13.0828 8.99132 13.143 9.14287 13.143H22.8572C23.0087 13.143 23.1541 13.0828 23.2612 12.9756C23.3684 12.8685 23.4286 12.7231 23.4286 12.5716V10.2859C23.4286 10.1343 23.3684 9.98896 23.2612 9.88179C23.1541 9.77463 23.0087 9.71443 22.8572 9.71443H9.14287ZM7.7143 17.143H14C14.2273 17.143 14.4454 17.2333 14.6061 17.394C14.7669 17.5548 14.8572 17.7728 14.8572 18.0001C14.8572 18.2275 14.7669 18.4455 14.6061 18.6062C14.4454 18.767 14.2273 18.8573 14 18.8573H7.7143C7.48697 18.8573 7.26896 18.767 7.10821 18.6062C6.94747 18.4455 6.85716 18.2275 6.85716 18.0001C6.85716 17.7728 6.94747 17.5548 7.10821 17.394C7.26896 17.2333 7.48697 17.143 7.7143 17.143ZM6.85716 22.2859C6.85716 22.0585 6.94747 21.8405 7.10821 21.6798C7.26896 21.519 7.48697 21.4287 7.7143 21.4287H14C14.2273 21.4287 14.4454 21.519 14.6061 21.6798C14.7669 21.8405 14.8572 22.0585 14.8572 22.2859C14.8572 22.5132 14.7669 22.7312 14.6061 22.8919C14.4454 23.0527 14.2273 23.143 14 23.143H7.7143C7.48697 23.143 7.26896 23.0527 7.10821 22.8919C6.94747 22.7312 6.85716 22.5132 6.85716 22.2859ZM19.7143 16.5716H23.1429C24.2469 16.5716 25.1429 17.4676 25.1429 18.5716V22.0001C25.1429 22.5306 24.9322 23.0393 24.5571 23.4144C24.182 23.7894 23.6733 24.0001 23.1429 24.0001H19.7143C19.1839 24.0001 18.6752 23.7894 18.3001 23.4144C17.925 23.0393 17.7143 22.5306 17.7143 22.0001V18.5716C17.7143 17.4676 18.6103 16.5716 19.7143 16.5716ZM19.4286 18.5716C19.4286 18.4958 19.4587 18.4231 19.5123 18.3695C19.5659 18.316 19.6385 18.2859 19.7143 18.2859H23.1429C23.2186 18.2859 23.2913 18.316 23.3449 18.3695C23.3985 18.4231 23.4286 18.4958 23.4286 18.5716V22.0001C23.4286 22.0759 23.3985 22.1486 23.3449 22.2022C23.2913 22.2558 23.2186 22.2859 23.1429 22.2859H19.7143C19.6385 22.2859 19.5659 22.2558 19.5123 22.2022C19.4587 22.1486 19.4286 22.0759 19.4286 22.0001V18.5716Z" fill="#236152"/>
</svg>
