<svg width="32" height="32" viewBox="0 0 32 32" fill="none" xmlns="http://www.w3.org/2000/svg">
<path d="M7.7143 3.42847C6.57766 3.42847 5.48757 3.88 4.68385 4.68372C3.88012 5.48745 3.42859 6.57754 3.42859 7.71418V24.2856C3.42859 25.4223 3.88012 26.5123 4.68385 27.3161C5.48757 28.1198 6.57766 28.5713 7.7143 28.5713H24.2857C25.4224 28.5713 26.5125 28.1198 27.3162 27.3161C28.1199 26.5123 28.5714 25.4223 28.5714 24.2856V7.71418C28.5714 6.57754 28.1199 5.48745 27.3162 4.68372C26.5125 3.88 25.4224 3.42847 24.2857 3.42847H7.7143ZM6.85716 10.2856C6.85716 9.6794 7.09798 9.09802 7.52663 8.66936C7.95528 8.24071 8.53666 7.9999 9.14287 7.9999H22.8572C23.4634 7.9999 24.0447 8.24071 24.4734 8.66936C24.9021 9.09802 25.1429 9.6794 25.1429 10.2856V12.5713C25.1429 13.1775 24.9021 13.7589 24.4734 14.1876C24.0447 14.6162 23.4634 14.857 22.8572 14.857H9.14287C8.53666 14.857 7.95528 14.6162 7.52663 14.1876C7.09798 13.7589 6.85716 13.1775 6.85716 12.5713V10.2856ZM9.14287 9.71418C8.99132 9.71418 8.84598 9.77438 8.73881 9.88155C8.63165 9.98871 8.57145 10.1341 8.57145 10.2856V12.5713C8.57145 12.7229 8.63165 12.8682 8.73881 12.9754C8.84598 13.0825 8.99132 13.1428 9.14287 13.1428H22.8572C23.0087 13.1428 23.1541 13.0825 23.2612 12.9754C23.3684 12.8682 23.4286 12.7229 23.4286 12.5713V10.2856C23.4286 10.1341 23.3684 9.98871 23.2612 9.88155C23.1541 9.77438 23.0087 9.71418 22.8572 9.71418H9.14287ZM7.7143 17.1428H14C14.2273 17.1428 14.4454 17.2331 14.6061 17.3938C14.7669 17.5545 14.8572 17.7726 14.8572 17.9999C14.8572 18.2272 14.7669 18.4452 14.6061 18.606C14.4454 18.7667 14.2273 18.857 14 18.857H7.7143C7.48697 18.857 7.26896 18.7667 7.10821 18.606C6.94747 18.4452 6.85716 18.2272 6.85716 17.9999C6.85716 17.7726 6.94747 17.5545 7.10821 17.3938C7.26896 17.2331 7.48697 17.1428 7.7143 17.1428ZM6.85716 22.2856C6.85716 22.0583 6.94747 21.8403 7.10821 21.6795C7.26896 21.5188 7.48697 21.4285 7.7143 21.4285H14C14.2273 21.4285 14.4454 21.5188 14.6061 21.6795C14.7669 21.8403 14.8572 22.0583 14.8572 22.2856C14.8572 22.5129 14.7669 22.731 14.6061 22.8917C14.4454 23.0524 14.2273 23.1428 14 23.1428H7.7143C7.48697 23.1428 7.26896 23.0524 7.10821 22.8917C6.94747 22.731 6.85716 22.5129 6.85716 22.2856ZM19.7143 16.5713H23.1429C24.2469 16.5713 25.1429 17.4673 25.1429 18.5713V21.9999C25.1429 22.5303 24.9322 23.039 24.5571 23.4141C24.182 23.7892 23.6733 23.9999 23.1429 23.9999H19.7143C19.1839 23.9999 18.6752 23.7892 18.3001 23.4141C17.925 23.039 17.7143 22.5303 17.7143 21.9999V18.5713C17.7143 17.4673 18.6103 16.5713 19.7143 16.5713ZM19.4286 18.5713C19.4286 18.4955 19.4587 18.4229 19.5123 18.3693C19.5659 18.3157 19.6385 18.2856 19.7143 18.2856H23.1429C23.2186 18.2856 23.2913 18.3157 23.3449 18.3693C23.3985 18.4229 23.4286 18.4955 23.4286 18.5713V21.9999C23.4286 22.0757 23.3985 22.1483 23.3449 22.2019C23.2913 22.2555 23.2186 22.2856 23.1429 22.2856H19.7143C19.6385 22.2856 19.5659 22.2555 19.5123 22.2019C19.4587 22.1483 19.4286 22.0757 19.4286 21.9999V18.5713Z" fill="#C5E642"/>
</svg>
