<svg width="43" height="43" viewBox="0 0 43 43" fill="none" xmlns="http://www.w3.org/2000/svg">
<path d="M21.5 20.8289C23.9525 20.8289 26.0618 18.6389 26.0618 15.7871C26.0618 12.9698 23.941 10.8828 21.5 10.8828C19.059 10.8828 16.9374 13.0159 16.9374 15.8102C16.9374 18.6389 19.0475 20.8289 21.5 20.8289ZM8.37195 21.0907C10.4935 21.0907 12.3418 19.1749 12.3418 16.7001C12.3418 14.2476 10.482 12.4339 8.37195 12.4339C6.25036 12.4339 4.37986 14.2929 4.39138 16.7224C4.39138 19.1749 6.23884 21.0915 8.37195 21.0915M34.6281 21.0915C36.7612 21.0915 38.6086 19.1757 38.6086 16.7231C38.6086 14.2936 36.7496 12.4347 34.6281 12.4347C32.518 12.4347 30.6582 14.2483 30.6582 16.7001C30.6582 19.1757 32.5065 21.0915 34.6281 21.0915ZM2.00718 31.3907H10.6763C9.48995 29.6684 10.9381 26.2008 13.3907 24.3073C12.1237 23.4634 10.4935 22.836 8.3612 22.836C3.21579 22.836 0 26.6339 0 29.7936C0 30.8202 0.570518 31.3907 2.00718 31.3907ZM40.9928 31.3907C42.441 31.3907 43 30.8202 43 29.7936C43 26.6339 39.7834 22.836 34.6396 22.836C32.5065 22.836 30.8755 23.4634 29.6101 24.3073C32.0619 26.2008 33.5108 29.6684 32.3245 31.3907H40.9928ZM14.3251 31.3907H28.6626C30.4532 31.3907 31.0921 30.877 31.0921 29.8735C31.0921 26.931 27.4079 22.8706 21.4885 22.8706C15.5806 22.8706 11.8964 26.931 11.8964 29.8735C11.8964 30.877 12.5345 31.3907 14.3251 31.3907Z" fill="#236152"/>
</svg>
