<svg width="32" height="32" viewBox="0 0 32 32" fill="none" xmlns="http://www.w3.org/2000/svg">
<path fill-rule="evenodd" clip-rule="evenodd" d="M15.0573 4.39069C15.3073 4.14073 15.6464 4.00031 16 4.00031C16.3535 4.00031 16.6926 4.14073 16.9426 4.39069L24.9426 12.3907L27.6093 15.0574C27.8522 15.3088 27.9866 15.6456 27.9835 15.9952C27.9805 16.3448 27.8403 16.6792 27.5931 16.9264C27.3459 17.1737 27.0114 17.3139 26.6618 17.3169C26.3122 17.32 25.9754 17.1856 25.724 16.9427L25.3333 16.552V25.3334C25.3333 26.0406 25.0524 26.7189 24.5523 27.219C24.0522 27.7191 23.3739 28 22.6666 28H18.6666C18.313 28 17.9739 27.8595 17.7238 27.6095C17.4738 27.3594 17.3333 27.0203 17.3333 26.6667V22.6667H14.6666V26.6667C14.6666 27.0203 14.5262 27.3594 14.2761 27.6095C14.0261 27.8595 13.6869 28 13.3333 28H9.33331C8.62606 28 7.94779 27.7191 7.44769 27.219C6.94759 26.7189 6.66664 26.0406 6.66664 25.3334V16.552L6.27597 16.9427C6.0245 17.1856 5.6877 17.32 5.3381 17.3169C4.98851 17.3139 4.65409 17.1737 4.40688 16.9264C4.15967 16.6792 4.01945 16.3448 4.01641 15.9952C4.01337 15.6456 4.14776 15.3088 4.39064 15.0574L7.05731 12.3907L15.0573 4.39069Z" fill="#C5E642"/>
</svg>
