<svg width="24" height="24" viewBox="0 0 24 24" fill="none" xmlns="http://www.w3.org/2000/svg">
<path fill-rule="evenodd" clip-rule="evenodd" d="M11.0573 0.390626C11.3073 0.140665 11.6464 0.000244141 12 0.000244141C12.3535 0.000244141 12.6926 0.140665 12.9426 0.390626L20.9426 8.39063L23.6093 11.0573C23.8522 11.3088 23.9866 11.6456 23.9835 11.9952C23.9805 12.3448 23.8403 12.6792 23.5931 12.9264C23.3459 13.1736 23.0114 13.3138 22.6618 13.3169C22.3122 13.3199 21.9754 13.1855 21.724 12.9426L21.3333 12.552V21.3333C21.3333 22.0405 21.0524 22.7188 20.5523 23.2189C20.0522 23.719 19.3739 24 18.6666 24H14.6666C14.313 24 13.9739 23.8595 13.7238 23.6094C13.4738 23.3594 13.3333 23.0202 13.3333 22.6666V18.6666H10.6666V22.6666C10.6666 23.0202 10.5262 23.3594 10.2761 23.6094C10.0261 23.8595 9.68693 24 9.33331 24H5.33331C4.62606 24 3.94779 23.719 3.44769 23.2189C2.94759 22.7188 2.66664 22.0405 2.66664 21.3333V12.552L2.27597 12.9426C2.0245 13.1855 1.6877 13.3199 1.3381 13.3169C0.988509 13.3138 0.654093 13.1736 0.406882 12.9264C0.159671 12.6792 0.0194457 12.3448 0.0164078 11.9952C0.0133699 11.6456 0.147762 11.3088 0.39064 11.0573L3.05731 8.39063L11.0573 0.390626Z" fill="#236152"/>
</svg>
