<svg width="162" height="53" viewBox="0 0 162 53" fill="none" xmlns="http://www.w3.org/2000/svg">
<path d="M2.95813 9.4H22.8781V15.256H9.53413V23.08H21.6781V28.936H9.53413V37.144H23.1181V43H2.95813V9.4ZM44.8843 41.512C43.9243 42.216 42.7563 42.744 41.3803 43.096C40.0363 43.48 38.6443 43.672 37.2043 43.672C35.2843 43.672 33.6523 43.368 32.3083 42.76C30.9963 42.152 29.9243 41.304 29.0923 40.216C28.2603 39.096 27.6523 37.752 27.2683 36.184C26.9163 34.616 26.7402 32.888 26.7402 31C26.7402 26.936 27.6523 23.816 29.4763 21.64C31.3003 19.432 33.9563 18.328 37.4443 18.328C39.2043 18.328 40.6123 18.472 41.6683 18.76C42.7563 19.048 43.7323 19.416 44.5963 19.864L43.1083 24.952C42.3723 24.6 41.6363 24.328 40.9003 24.136C40.1963 23.944 39.3803 23.848 38.4523 23.848C36.7243 23.848 35.4123 24.424 34.5163 25.576C33.6203 26.696 33.1723 28.504 33.1723 31C33.1723 32.024 33.2843 32.968 33.5083 33.832C33.7323 34.696 34.0683 35.448 34.5163 36.088C34.9643 36.728 35.5403 37.24 36.2443 37.624C36.9803 37.976 37.8283 38.152 38.7883 38.152C39.8443 38.152 40.7403 38.024 41.4763 37.768C42.2123 37.48 42.8683 37.144 43.4443 36.76L44.8843 41.512Z" fill="#EDF5C4"/>
<path fill-rule="evenodd" clip-rule="evenodd" d="M68.4279 16.1458C66.9048 13.5064 63.0953 13.5064 61.5721 16.1458L59.3602 19.9775C59.0502 20.5227 58.9685 21.1684 59.1328 21.7736C59.2971 22.3789 59.6942 22.8946 60.2373 23.2081C60.7804 23.5217 61.4255 23.6078 62.0319 23.4475C62.6382 23.2871 63.1565 22.8935 63.4737 22.3525L65 19.7083L68.515 25.7978C67.9603 25.8506 67.4417 26.0968 67.0501 26.4933C66.6585 26.8898 66.4188 27.4113 66.373 27.9667C66.3271 28.5221 66.478 29.0759 66.7993 29.5313C67.1205 29.9866 67.5917 30.3145 68.1303 30.4576L72.7188 31.6862C73.0629 31.7809 73.424 31.7957 73.7747 31.7296C74.1254 31.6635 74.4563 31.5181 74.7423 31.3047C75.1761 30.9848 75.4833 30.5447 75.6289 30.0063L76.8576 25.4194C77.0021 24.8817 76.9531 24.3103 76.7191 23.8051C76.4851 23.2999 76.0811 22.8929 75.5776 22.6553C75.074 22.4176 74.503 22.3645 73.9643 22.5051C73.4255 22.6457 72.9533 22.971 72.6301 23.4244L68.4279 16.1458ZM49.2316 37.5208L53.4322 30.2438C52.8774 30.1911 52.3589 29.9449 51.9673 29.5484C51.5757 29.1519 51.336 28.6303 51.2901 28.0749C51.2443 27.5195 51.3952 26.9657 51.7164 26.5104C52.0377 26.055 52.5088 25.7271 53.0474 25.5841L57.6359 24.3554C58.2442 24.1937 58.8917 24.2795 59.4368 24.5941C59.9818 24.9086 60.3802 25.4262 60.5445 26.0337L61.7748 30.6238C61.9193 31.1615 61.8702 31.7329 61.6363 32.2381C61.4023 32.7434 60.9983 33.1503 60.4947 33.388C59.9912 33.6256 59.4202 33.6787 58.8815 33.5382C58.3427 33.3976 57.8705 33.0722 57.5473 32.6188L54.0307 38.7083H57.0834C57.7132 38.7083 58.3173 38.9585 58.7627 39.4039C59.2081 39.8493 59.4584 40.4534 59.4584 41.0833C59.4584 41.7132 59.2081 42.3173 58.7627 42.7627C58.3173 43.2081 57.7132 43.4583 57.0834 43.4583H52.6595C49.6116 43.4583 47.7084 40.1602 49.2316 37.5208ZM78.5565 33.6892C78.2393 33.1481 77.721 32.7545 77.1147 32.5942C76.5084 32.4339 75.8633 32.5199 75.3201 32.8335C74.777 33.1471 74.3799 33.6628 74.2156 34.268C74.0513 34.8733 74.1331 35.519 74.443 36.0642L75.9694 38.7083H68.9394C69.1709 38.2015 69.2169 37.6295 69.0693 37.0922C68.9217 36.555 68.5899 36.0867 68.132 35.7693C67.674 35.452 67.1191 35.3057 66.5642 35.3561C66.0093 35.4065 65.4898 35.6504 65.0966 36.0452L61.7494 39.3923C61.3124 39.823 61.0417 40.4215 61.0417 41.0833C61.0417 41.7357 61.295 42.3278 61.7494 42.7759L65.0966 46.1215C65.4901 46.5151 66.0093 46.758 66.5636 46.8078C67.1179 46.8576 67.6721 46.7112 68.1294 46.3941C68.5868 46.077 68.9183 45.6094 69.066 45.0728C69.2137 44.5362 69.1684 43.9648 68.9378 43.4583H77.3405C80.3884 43.4583 82.2932 40.1602 80.7684 37.5208L78.5565 33.6892Z" fill="#C5E642"/>
<path d="M92.5573 28.4H102.997V40.88C101.877 41.8133 100.531 42.4933 98.9573 42.92C97.4107 43.3467 95.8773 43.56 94.3573 43.56C92.5707 43.56 90.904 43.28 89.3573 42.72C87.8373 42.16 86.5173 41.2933 85.3973 40.12C84.2773 38.92 83.3973 37.4 82.7573 35.56C82.1173 33.72 81.7973 31.5333 81.7973 29C81.7973 26.36 82.1707 24.12 82.9173 22.28C83.6907 20.4133 84.6907 18.9067 85.9173 17.76C87.1707 16.5867 88.5707 15.7467 90.1173 15.24C91.664 14.7067 93.2373 14.44 94.8373 14.44C96.4373 14.44 97.8373 14.56 99.0373 14.8C100.264 15.04 101.237 15.2933 101.957 15.56L100.837 20.16C100.171 19.8933 99.424 19.6933 98.5973 19.56C97.7707 19.4 96.7173 19.32 95.4373 19.32C94.2907 19.32 93.2373 19.4933 92.2773 19.84C91.3173 20.1867 90.4773 20.76 89.7573 21.56C89.064 22.3333 88.5173 23.3333 88.1173 24.56C87.744 25.7867 87.5573 27.28 87.5573 29.04C87.5573 30.72 87.744 32.1733 88.1173 33.4C88.4907 34.6 89.0107 35.6 89.6773 36.4C90.344 37.1733 91.1173 37.7467 91.9973 38.12C92.904 38.4933 93.864 38.68 94.8773 38.68C95.5707 38.68 96.2507 38.6 96.9173 38.44C97.584 38.2533 98.144 37.9867 98.5973 37.64V32.36L92.5573 31.72V28.4ZM111.932 23V34.36C111.932 35.9867 112.119 37.16 112.492 37.88C112.892 38.6 113.652 38.96 114.772 38.96C115.759 38.96 116.572 38.6667 117.212 38.08C117.879 37.4933 118.372 36.7733 118.692 35.92V23H123.892V36.92C123.892 38.0133 123.946 39.0933 124.052 40.16C124.159 41.2 124.319 42.1467 124.532 43H120.612L119.692 40.04H119.532C118.919 41.0533 118.066 41.8933 116.972 42.56C115.879 43.2267 114.586 43.56 113.092 43.56C112.079 43.56 111.172 43.4267 110.372 43.16C109.572 42.8933 108.906 42.4533 108.372 41.84C107.839 41.2267 107.426 40.4 107.132 39.36C106.866 38.32 106.732 37.0133 106.732 35.44V23H111.932ZM139.496 27.88C138.669 27.5867 137.922 27.44 137.256 27.44C136.322 27.44 135.536 27.6933 134.896 28.2C134.282 28.68 133.869 29.3067 133.656 30.08V43H128.456V23H132.496L133.096 25.64H133.256C133.709 24.6533 134.322 23.8933 135.096 23.36C135.869 22.8267 136.776 22.56 137.816 22.56C138.509 22.56 139.296 22.7067 140.176 23L139.496 27.88ZM147.479 23V34.36C147.479 35.9867 147.666 37.16 148.039 37.88C148.439 38.6 149.199 38.96 150.319 38.96C151.306 38.96 152.119 38.6667 152.759 38.08C153.426 37.4933 153.919 36.7733 154.239 35.92V23H159.439V36.92C159.439 38.0133 159.493 39.0933 159.599 40.16C159.706 41.2 159.866 42.1467 160.079 43H156.159L155.239 40.04H155.079C154.466 41.0533 153.613 41.8933 152.519 42.56C151.426 43.2267 150.133 43.56 148.639 43.56C147.626 43.56 146.719 43.4267 145.919 43.16C145.119 42.8933 144.453 42.4533 143.919 41.84C143.386 41.2267 142.973 40.4 142.679 39.36C142.413 38.32 142.279 37.0133 142.279 35.44V23H147.479Z" fill="#EDF5C4"/>
</svg>
