<svg width="32" height="32" viewBox="0 0 32 32" fill="none" xmlns="http://www.w3.org/2000/svg">
<g clip-path="url(#clip0_358_2454)">
<path fill-rule="evenodd" clip-rule="evenodd" d="M0 3.42857C0 2.51926 0.361223 1.64719 1.00421 1.00421C1.64719 0.361223 2.51926 0 3.42857 0L19.4286 0C20.3379 0 21.21 0.361223 21.8529 1.00421C22.4959 1.64719 22.8571 2.51926 22.8571 3.42857V7.86057C21.9297 8.60342 21.328 9.6782 21.1794 10.8571H13.1429C12.4675 10.8571 11.7987 10.9902 11.1748 11.2486C10.5508 11.5071 9.98387 11.8859 9.50631 12.3635C9.02875 12.841 8.64993 13.408 8.39148 14.0319C8.13302 14.6559 8 15.3246 8 16C8 16.6754 8.13302 17.3441 8.39148 17.9681C8.64993 18.592 9.02875 19.159 9.50631 19.6365C9.98387 20.1141 10.5508 20.4929 11.1748 20.7514C11.7987 21.0098 12.4675 21.1429 13.1429 21.1429H21.1794C21.328 22.3218 21.9297 23.3966 22.8571 24.1394V28.5714C22.8571 29.4807 22.4959 30.3528 21.8529 30.9958C21.21 31.6388 20.3379 32 19.4286 32H3.42857C2.51926 32 1.64719 31.6388 1.00421 30.9958C0.361223 30.3528 0 29.4807 0 28.5714L0 3.42857ZM25.0583 9.84457C24.745 9.97433 24.4772 10.1941 24.2889 10.476C24.1005 10.758 24 11.0895 24 11.4286V13.7143H13.1429C12.5366 13.7143 11.9553 13.9551 11.5266 14.3838C11.098 14.8124 10.8571 15.3938 10.8571 16C10.8571 16.6062 11.098 17.1876 11.5266 17.6162C11.9553 18.0449 12.5366 18.2857 13.1429 18.2857H24V20.5714C24.0003 20.9103 24.101 21.2414 24.2894 21.523C24.4778 21.8047 24.7454 22.0242 25.0585 22.1538C25.3715 22.2834 25.716 22.3174 26.0483 22.2514C26.3806 22.1853 26.686 22.0223 26.9257 21.7829L31.4971 17.2114C31.8182 16.89 31.9985 16.4543 31.9985 16C31.9985 15.5457 31.8182 15.11 31.4971 14.7886L26.9257 10.2171C26.6861 9.97739 26.3809 9.81404 26.0485 9.74772C25.7161 9.68141 25.3715 9.71511 25.0583 9.84457Z" fill="#E72929"/>
</g>
<defs>
<clipPath id="clip0_358_2454">
<rect width="32" height="32" fill="white"/>
</clipPath>
</defs>
</svg>
