<svg width="20" height="21" viewBox="0 0 20 21" fill="none" xmlns="http://www.w3.org/2000/svg">
<path d="M5.24402 4.07754C5.40029 3.92131 5.61221 3.83355 5.83318 3.83355C6.05415 3.83355 6.26608 3.92131 6.42235 4.07754L9.75568 7.41087C9.90748 7.56804 9.99148 7.77854 9.98958 7.99704C9.98768 8.21554 9.90004 8.42455 9.74553 8.57906C9.59103 8.73356 9.38202 8.8212 9.16352 8.8231C8.94502 8.825 8.73452 8.74101 8.57735 8.58921L6.66652 6.67837V16.3334C6.66652 16.5544 6.57872 16.7663 6.42244 16.9226C6.26616 17.0789 6.0542 17.1667 5.83318 17.1667C5.61217 17.1667 5.40021 17.0789 5.24393 16.9226C5.08765 16.7663 4.99985 16.5544 4.99985 16.3334V6.67837L3.08902 8.58921C2.93185 8.74101 2.72135 8.825 2.50285 8.8231C2.28435 8.8212 2.07534 8.73356 1.92084 8.57906C1.76633 8.42455 1.67869 8.21554 1.67679 7.99704C1.67489 7.77854 1.75889 7.56804 1.91068 7.41087L5.24402 4.07754ZM13.3332 14.3217V4.66671C13.3332 4.44569 13.421 4.23373 13.5773 4.07745C13.7335 3.92117 13.9455 3.83337 14.1665 3.83337C14.3875 3.83337 14.5995 3.92117 14.7558 4.07745C14.9121 4.23373 14.9999 4.44569 14.9999 4.66671V14.3217L16.9107 12.4109C17.0679 12.2591 17.2784 12.1751 17.4969 12.177C17.7153 12.1789 17.9244 12.2665 18.0789 12.421C18.2334 12.5755 18.321 12.7845 18.3229 13.003C18.3248 13.2215 18.2408 13.432 18.089 13.5892L14.7557 16.9225C14.5994 17.0788 14.3875 17.1665 14.1665 17.1665C13.9455 17.1665 13.7336 17.0788 13.5774 16.9225L10.244 13.5892C10.0922 13.432 10.0082 13.2215 10.0101 13.003C10.012 12.7845 10.0997 12.5755 10.2542 12.421C10.4087 12.2665 10.6177 12.1789 10.8362 12.177C11.0547 12.1751 11.2652 12.2591 11.4224 12.4109L13.3332 14.3217Z" fill="black"/>
</svg>
