<svg width="32" height="32" viewBox="0 0 32 32" fill="none" xmlns="http://www.w3.org/2000/svg">
<path d="M18 21.3335C18 21.8639 17.7893 22.3726 17.4142 22.7477C17.0391 23.1228 16.5304 23.3335 16 23.3335C15.4696 23.3335 14.9609 23.1228 14.5858 22.7477C14.2107 22.3726 14 21.8639 14 21.3335C14 20.8031 14.2107 20.2944 14.5858 19.9193C14.9609 19.5442 15.4696 19.3335 16 19.3335C16.5304 19.3335 17.0391 19.5442 17.4142 19.9193C17.7893 20.2944 18 20.8031 18 21.3335Z" fill="#C5E642"/>
<path d="M19.1293 0.879883L23.3693 6.82122L26.1653 5.86788L28.7173 13.3332H30V29.3332H2V13.3332H2.68V13.3199L3.544 13.3279L19.1293 0.879883ZM12.5293 13.3332H25.9L24.5173 9.28922L22.488 9.93855L12.5293 13.3332ZM10.452 11.2225L20.7333 7.71988L18.5947 4.71988L10.452 11.2225ZM7.33333 15.9999H4.66667V18.6665C5.37391 18.6665 6.05219 18.3856 6.55229 17.8855C7.05238 17.3854 7.33333 16.7071 7.33333 15.9999ZM20.6667 21.3332C20.6667 20.7204 20.546 20.1135 20.3114 19.5474C20.0769 18.9812 19.7332 18.4667 19.2998 18.0334C18.8665 17.6 18.352 17.2563 17.7859 17.0218C17.2197 16.7873 16.6128 16.6665 16 16.6665C15.3872 16.6665 14.7803 16.7873 14.2141 17.0218C13.648 17.2563 13.1335 17.6 12.7002 18.0334C12.2668 18.4667 11.9231 18.9812 11.6886 19.5474C11.454 20.1135 11.3333 20.7204 11.3333 21.3332C11.3333 22.5709 11.825 23.7579 12.7002 24.633C13.5753 25.5082 14.7623 25.9999 16 25.9999C17.2377 25.9999 18.4247 25.5082 19.2998 24.633C20.175 23.7579 20.6667 22.5709 20.6667 21.3332ZM27.3333 26.6665V23.9999C26.6261 23.9999 25.9478 24.2808 25.4477 24.7809C24.9476 25.281 24.6667 25.9593 24.6667 26.6665H27.3333ZM24.6667 15.9999C24.6667 16.7071 24.9476 17.3854 25.4477 17.8855C25.9478 18.3856 26.6261 18.6665 27.3333 18.6665V15.9999H24.6667ZM4.66667 26.6665H7.33333C7.33333 25.9593 7.05238 25.281 6.55229 24.7809C6.05219 24.2808 5.37391 23.9999 4.66667 23.9999V26.6665Z" fill="#C5E642"/>
</svg>
