<svg width="32" height="32" viewBox="0 0 32 32" fill="none" xmlns="http://www.w3.org/2000/svg">
<path fill-rule="evenodd" clip-rule="evenodd" d="M1.88582 4.62473C1.59364 4.25951 1.59364 3.74057 1.88582 3.37534L3.48582 1.37534C3.83083 0.94408 4.46011 0.874159 4.89138 1.21917C5.32264 1.56418 5.39256 2.19347 5.04755 2.62473L4.74731 3.00003H8.00002C8.5523 3.00003 9.00002 3.44775 9.00002 4.00003C9.00002 4.55233 8.5523 5.00003 8.00002 5.00003H4.74731L5.04755 5.37534C5.39256 5.80661 5.32264 6.4359 4.89138 6.7809C4.46012 7.12591 3.83083 7.05599 3.48582 6.62473L1.88582 4.62473ZM30.1143 28.6247C30.4064 28.2595 30.4064 27.7406 30.1143 27.3754L28.5143 25.3754C28.1692 24.9441 27.5399 24.8742 27.1087 25.2191C26.6774 25.5642 26.6075 26.1934 26.9524 26.6247L27.2527 27.0001H24C23.4478 27.0001 23 27.4478 23 28.0001C23 28.5523 23.4478 29.0001 24 29.0001H27.2527L26.9524 29.3754C26.6075 29.8066 26.6774 30.4359 27.1087 30.7809C27.5399 31.1259 28.1692 31.0559 28.5143 30.6247L30.1143 28.6247ZM16 6.33341C10.6613 6.33341 6.33335 10.6613 6.33335 16.0001C6.33335 21.3389 10.6613 25.6667 16 25.6667C21.3388 25.6667 25.6667 21.3389 25.6667 16.0001C25.6667 10.6613 21.3388 6.33341 16 6.33341ZM4.33335 16.0001C4.33335 9.55675 9.5567 4.33341 16 4.33341C22.4433 4.33341 27.6667 9.55675 27.6667 16.0001C27.6667 22.4434 22.4433 27.6667 16 27.6667C9.5567 27.6667 4.33335 22.4434 4.33335 16.0001Z" fill="#C5E642"/>
<circle cx="16" cy="16.0001" r="11.4286" fill="#C5E642"/>
<path fill-rule="evenodd" clip-rule="evenodd" d="M16 7.8269C16.5522 7.8269 17 8.27461 17 8.8269V9.8269H18.6666C19.2189 9.8269 19.6666 10.2746 19.6666 10.8269C19.6666 11.3792 19.2189 11.8269 18.6666 11.8269H16C15.0794 11.8269 14.3333 12.5731 14.3333 13.4935V15.1602H18.6666C19.2189 15.1602 19.6666 15.6079 19.6666 16.1602V18.8269C19.6666 20.5053 18.539 21.9202 17 22.3555V23.4935C17 24.0458 16.5522 24.4935 16 24.4935C15.4477 24.4935 15 24.0458 15 23.4935V22.4935H13.3333C12.781 22.4935 12.3333 22.0458 12.3333 21.4935C12.3333 20.9413 12.781 20.4935 13.3333 20.4935H16C16.9205 20.4935 17.6666 19.7474 17.6666 18.8269V17.1602H13.3333C12.781 17.1602 12.3333 16.7125 12.3333 16.1602V13.4935C12.3333 11.8152 13.4609 10.4002 15 9.96492V8.8269C15 8.27461 15.4477 7.8269 16 7.8269Z" fill="#236152"/>
</svg>
