<svg width="43" height="43" viewBox="0 0 43 43" fill="none" xmlns="http://www.w3.org/2000/svg">
<path fill-rule="evenodd" clip-rule="evenodd" d="M2.53408 6.21448C2.14147 5.72372 2.14147 5.02639 2.53408 4.53561L4.68408 1.84811C5.14769 1.26861 5.99329 1.17465 6.5728 1.63826C7.15232 2.10187 7.24627 2.94748 6.78266 3.52698L6.37921 4.03129H10.75C11.4922 4.03129 12.0938 4.63292 12.0938 5.37504C12.0938 6.11719 11.4922 6.7188 10.75 6.7188H6.37921L6.78266 7.22311C7.24627 7.80263 7.15232 8.64824 6.5728 9.11183C5.9933 9.57545 5.14769 9.48149 4.68408 8.90198L2.53408 6.21448ZM40.4661 38.4645C40.8586 37.9738 40.8586 37.2764 40.4661 36.7857L38.3161 34.0982C37.8524 33.5186 37.0067 33.4247 36.4273 33.8882C35.8477 34.3519 35.7538 35.1974 36.2173 35.777L36.6208 36.2813H32.25C31.5079 36.2813 30.9063 36.883 30.9063 37.6251C30.9063 38.3672 31.5079 38.9688 32.25 38.9688H36.6208L36.2173 39.4732C35.7538 40.0526 35.8477 40.8983 36.4273 41.3618C37.0067 41.8255 37.8524 41.7314 38.3161 41.152L40.4661 38.4645ZM21.5 8.51052C14.3261 8.51052 8.51045 14.3262 8.51045 21.5001C8.51045 28.6741 14.3261 34.4897 21.5 34.4897C28.6741 34.4897 34.4896 28.6741 34.4896 21.5001C34.4896 14.3262 28.6741 8.51052 21.5 8.51052ZM5.82295 21.5001C5.82295 12.8419 12.8418 5.82302 21.5 5.82302C30.1583 5.82302 37.1771 12.8419 37.1771 21.5001C37.1771 30.1583 30.1583 37.1772 21.5 37.1772C12.8418 37.1772 5.82295 30.1583 5.82295 21.5001Z" fill="#236152"/>
<circle cx="21.5" cy="21.5" r="15.3571" fill="#236152"/>
<path fill-rule="evenodd" clip-rule="evenodd" d="M21.5 10.5173C22.2421 10.5173 22.8437 11.1189 22.8437 11.8611V13.2048H25.0833C25.8254 13.2048 26.427 13.8064 26.427 14.5486C26.427 15.2907 25.8254 15.8923 25.0833 15.8923H21.5C20.263 15.8923 19.2604 16.895 19.2604 18.1319V20.3715H25.0833C25.8254 20.3715 26.427 20.9731 26.427 21.7152V25.2985C26.427 27.5539 24.9118 29.4552 22.8437 30.0402V31.5694C22.8437 32.3115 22.2421 32.9131 21.5 32.9131C20.7579 32.9131 20.1562 32.3115 20.1562 31.5694V30.2256H17.9166C17.1745 30.2256 16.5729 29.624 16.5729 28.8819C16.5729 28.1398 17.1745 27.5381 17.9166 27.5381H21.5C22.7369 27.5381 23.7395 26.5355 23.7395 25.2985V23.059H17.9166C17.1745 23.059 16.5729 22.4573 16.5729 21.7152V18.1319C16.5729 15.8766 18.0881 13.9752 20.1562 13.3903V11.8611C20.1562 11.1189 20.7579 10.5173 21.5 10.5173Z" fill="white"/>
</svg>
