<svg width="16" height="16" viewBox="0 0 16 16" fill="none" xmlns="http://www.w3.org/2000/svg">
<path d="M14.4166 7.08317H8.91663V1.58317C8.91663 1.34006 8.82005 1.1069 8.64814 0.93499C8.47623 0.763081 8.24307 0.666504 7.99996 0.666504C7.75684 0.666504 7.52369 0.763081 7.35178 0.93499C7.17987 1.1069 7.08329 1.34006 7.08329 1.58317V7.08317H1.58329C1.34018 7.08317 1.10702 7.17975 0.935112 7.35166C0.763203 7.52356 0.666626 7.75672 0.666626 7.99984C0.666626 8.24295 0.763203 8.47611 0.935112 8.64802C1.10702 8.81993 1.34018 8.9165 1.58329 8.9165H7.08329V14.4165C7.08329 14.6596 7.17987 14.8928 7.35178 15.0647C7.52369 15.2366 7.75684 15.3332 7.99996 15.3332C8.24307 15.3332 8.47623 15.2366 8.64814 15.0647C8.82005 14.8928 8.91663 14.6596 8.91663 14.4165V8.9165H14.4166C14.6597 8.9165 14.8929 8.81993 15.0648 8.64802C15.2367 8.47611 15.3333 8.24295 15.3333 7.99984C15.3333 7.75672 15.2367 7.52356 15.0648 7.35166C14.8929 7.17975 14.6597 7.08317 14.4166 7.08317Z" fill="#EDF5C4"/>
</svg>