<svg width="22" height="22" viewBox="0 0 22 22" fill="none" xmlns="http://www.w3.org/2000/svg">
<path fill-rule="evenodd" clip-rule="evenodd" d="M4.58337 4.5835C3.85403 4.5835 3.15456 4.87323 2.63883 5.38895C2.12311 5.90468 1.83337 6.60415 1.83337 7.3335V14.6668C1.83337 15.3962 2.12311 16.0956 2.63883 16.6114C3.15456 17.1271 3.85403 17.4168 4.58337 17.4168H13.75C14.4794 17.4168 15.1789 17.1271 15.6946 16.6114C16.2103 16.0956 16.5 15.3962 16.5 14.6668V13.213L18.602 15.3149C18.7302 15.4431 18.8935 15.5303 19.0713 15.5657C19.2491 15.6011 19.4333 15.5829 19.6008 15.5135C19.7683 15.4442 19.9114 15.3267 20.0122 15.176C20.1129 15.0253 20.1667 14.8481 20.1667 14.6668V7.3335C20.1667 7.15223 20.1129 6.97503 20.0122 6.82433C19.9114 6.67362 19.7683 6.55616 19.6008 6.48679C19.4333 6.41743 19.2491 6.39927 19.0713 6.43463C18.8935 6.46998 18.7302 6.55725 18.602 6.68541L16.5 8.78733V7.3335C16.5 6.60415 16.2103 5.90468 15.6946 5.38895C15.1789 4.87323 14.4794 4.5835 13.75 4.5835H4.58337Z" fill="#EDF5C4"/>
</svg>
