<svg width="43" height="43" viewBox="0 0 43 43" fill="none" xmlns="http://www.w3.org/2000/svg">
<path d="M35.8333 12.5417V8.95833C35.8333 6.98212 34.2262 5.375 32.25 5.375H8.95831C5.9949 5.375 3.58331 7.78658 3.58331 10.75V32.25C3.58331 36.1935 6.79756 37.625 8.95831 37.625H35.8333C37.8095 37.625 39.4166 36.0179 39.4166 34.0417V16.125C39.4166 14.1488 37.8095 12.5417 35.8333 12.5417ZM32.25 28.6667H28.6666V21.5H32.25V28.6667ZM8.95831 12.5417C8.497 12.521 8.06141 12.3232 7.74227 11.9895C7.42312 11.6558 7.245 11.2118 7.245 10.75C7.245 10.2882 7.42312 9.84424 7.74227 9.51049C8.06141 9.17675 8.497 8.97897 8.95831 8.95833H32.25V12.5417H8.95831Z" fill="#236152"/>
</svg>
